<?xml version="1.0" standalone="no"?><!DOCTYPE svg PUBLIC "-//W3C//DTD SVG 1.1//EN" "http://www.w3.org/Graphics/SVG/1.1/DTD/svg11.dtd"><svg t="1583760703266" class="icon" viewBox="0 0 1024 1024" version="1.1" xmlns="http://www.w3.org/2000/svg" p-id="548" width="200" height="200" xmlns:xlink="http://www.w3.org/1999/xlink"><defs><style type="text/css"></style></defs><path d="M452.29 475.94H230.57c-106.78 0-193.67-86.88-193.67-193.66v-28.07c0-106.78 86.89-193.66 193.67-193.66h28.07c106.78 0 193.65 86.88 193.65 193.66v221.73zM230.57 137.88c-64.16 0-116.35 52.18-116.35 116.33v28.07c0 64.15 52.18 116.33 116.35 116.33h144.39v-144.4c0-64.15-52.18-116.33-116.32-116.33h-28.07zM794.33 475.94H572.61V254.22c0-106.78 86.89-193.66 193.67-193.66h28.04C901.11 60.56 988 147.44 988 254.22v28.07c0 106.77-86.89 193.65-193.67 193.65z m-144.39-77.32h144.39c64.16 0 116.35-52.18 116.35-116.33v-28.07c0-64.15-52.18-116.33-116.35-116.33h-28.04c-64.16 0-116.35 52.18-116.35 116.33v144.4zM258.64 982.29h-28.07c-106.78 0-193.67-86.88-193.67-193.67v-28.05c0-106.78 86.89-193.66 193.67-193.66h221.72v221.72c0 106.78-86.87 193.66-193.65 193.66z m-28.07-338.06c-64.16 0-116.35 52.18-116.35 116.33v28.05c0 64.15 52.18 116.35 116.35 116.35h28.07c64.14 0 116.32-52.19 116.32-116.35V644.23H230.57zM794.33 982.29h-28.04c-106.78 0-193.67-86.88-193.67-193.67V566.9h221.72C901.11 566.9 988 653.78 988 760.56v28.05c0 106.8-86.89 193.68-193.67 193.68zM649.94 644.23v144.39c0 64.15 52.18 116.35 116.35 116.35h28.04c64.16 0 116.35-52.19 116.35-116.35v-28.05c0-64.15-52.18-116.33-116.35-116.33H649.94v-0.01z" fill="#ffffff" p-id="549"></path></svg>